<!-- Generator: Adobe Illustrator 24.2.1, SVG Export Plug-In  -->
<svg version="1.1" xmlns="http://www.w3.org/2000/svg" xmlns:xlink="http://www.w3.org/1999/xlink" x="0px" y="0px" width="893.1px"
	 height="446.5px" viewBox="0 0 893.1 446.5" style="overflow:visible;enable-background:new 0 0 893.1 446.5;"
	 xml:space="preserve">
<style type="text/css">
	.st0{fill:#FFFFFF;}
	.st1{fill:#E7E7E8;}
</style>
<defs>
</defs>
<g>
	<rect class="st0" width="893.1" height="446.5"/>
	<g>
		<g>
			<path class="st1" d="M17.1,445.2c2,0.4,4,0.8,6,1.3h6.6c-0.2-0.1-0.5-0.1-0.7-0.2c-3.7-0.9-7.6-1.8-11.5-2.6
				c-3.1-0.6-9.5-1.9-17.4-1.9c0,0,0,0,0,0v1.5C7.8,443.4,14.1,444.6,17.1,445.2z"/>
			<path class="st1" d="M284.3,441.7c17.9-4.3,32.4-0.7,48,4.8h4.4c-16.8-6.1-33.1-11-52.8-6.3c-6.7,1.6-13.4,3.8-19.8,6
				c-0.3,0.1-0.6,0.2-0.8,0.3h4.7C273.4,444.8,278.8,443,284.3,441.7z"/>
			<path class="st1" d="M127.7,440.2c15.4-1.1,30.2,2.4,44.6,6.3h5.6c-16.2-4.4-32.9-9-50.3-7.8c-12.9,0.9-25.5,3.8-37.6,6.7
				c-1.6,0.4-3.1,0.7-4.7,1.1h6.5C103.4,443.8,115.4,441.1,127.7,440.2z"/>
			<path class="st1" d="M475.5,446.4c-3.7-0.9-7.6-1.8-11.5-2.6c-3.1-0.6-9.5-1.9-17.4-1.9c0,0,0,0,0,0l0,0c-0.1,0-0.2,0-0.3,0
				c-7.8,0-15.1,1.2-21.9,3.7c-0.9,0.3-1.9,0.7-2.8,1h4.4c6.3-2.1,13.1-3.2,20.3-3.2c0.1,0,0.2,0,0.3,0c0,0,0,0,0,0
				c7.8,0,14.1,1.3,17.1,1.9c2,0.4,4,0.8,6,1.3h6.6C476,446.5,475.7,446.4,475.5,446.4z"/>
			<path class="st1" d="M730.8,441.7c17.9-4.3,32.4-0.7,48,4.8h4.4c-16.8-6.1-33.1-11-52.8-6.3c-6.7,1.6-13.4,3.8-19.8,6
				c-0.3,0.1-0.6,0.2-0.8,0.3h4.7C719.9,444.8,725.3,443,730.8,441.7z"/>
			<path class="st1" d="M892.8,443.3c0.1,0,0.2,0,0.3,0c0,0,0,0,0,0v-1.5c-0.1,0-0.2,0-0.3,0c-7.8,0-15.1,1.2-21.9,3.7
				c-0.9,0.3-1.9,0.7-2.8,1h4.4C878.8,444.4,885.6,443.3,892.8,443.3z"/>
			<path class="st1" d="M574.2,440.2c15.4-1.1,30.2,2.4,44.6,6.3h5.6c-16.2-4.4-32.9-9-50.3-7.8c-12.9,0.9-25.5,3.8-37.6,6.7
				c-1.6,0.4-3.1,0.7-4.7,1.1h6.5C549.9,443.8,561.9,441.1,574.2,440.2z"/>
		</g>
		<g>
			<path class="st1" d="M340.6,3c3.3,1.2,6.7,2.5,10.2,3.7c9.1,3.1,18.5,4.8,28.1,5c0.6,0,1.2,0,1.8,0c3.6,0,6.8-0.2,9.9-0.7
				c9.6-1.4,18.8-4.9,27.8-8.2c2.1-0.8,4.3-1.6,6.5-2.4c0.4-0.1,0.7-0.3,1.1-0.4h-4.4c-1.2,0.5-2.5,0.9-3.7,1.4
				c-8.9,3.3-18,6.7-27.5,8.1c-3.5,0.5-7.3,0.7-11.4,0.6c-9.4-0.2-18.7-1.8-27.6-4.9c-3.5-1.2-6.9-2.4-10.2-3.6
				c-1.5-0.5-2.9-1.1-4.4-1.6h-4.4C335,1,337.8,2,340.6,3z"/>
			<path class="st1" d="M28.6,1.3C42.2,4.5,55,7.5,69.3,4.9c7.1-1.3,14.1-2.9,21-4.5c0.5-0.1,1-0.2,1.5-0.4h-6.5
				C79.9,1.2,74.5,2.4,69,3.4C55.3,5.9,42.8,3.1,29.7,0h-6.6C25,0.4,26.8,0.9,28.6,1.3z"/>
			<path class="st1" d="M178.1,1.6c18.8,5.2,38.3,10.5,59.2,7.1c9.4-1.5,18.5-4.6,27.4-7.5c1.1-0.4,2.3-0.8,3.4-1.1h-4.7
				c-8.5,2.8-17.3,5.7-26.3,7.2c-20.6,3.4-39.9-1.9-58.5-7c-0.2-0.1-0.4-0.1-0.6-0.2h-5.6C174.2,0.5,176.1,1.1,178.1,1.6z"/>
			<path class="st1" d="M787.1,3c3.3,1.2,6.7,2.5,10.2,3.7c9.1,3.1,18.5,4.8,28.1,5c0.6,0,1.2,0,1.8,0c3.6,0,6.8-0.2,9.9-0.7
				c9.6-1.4,18.8-4.9,27.8-8.2c2.1-0.8,4.3-1.6,6.5-2.4c0.4-0.1,0.7-0.3,1.1-0.4h-4.4c-1.2,0.5-2.5,0.9-3.7,1.4
				c-8.9,3.3-18,6.7-27.5,8.1c-3.5,0.5-7.3,0.7-11.4,0.6c-9.4-0.2-18.7-1.8-27.6-4.9c-3.5-1.2-6.9-2.4-10.2-3.6
				c-1.5-0.5-2.9-1.1-4.4-1.6h-4.4C781.6,1,784.3,2,787.1,3z"/>
			<path class="st1" d="M475.1,1.3c13.6,3.2,26.4,6.2,40.7,3.6c7.1-1.3,14.1-2.9,21-4.5c0.5-0.1,1-0.2,1.5-0.4h-6.5
				c-5.3,1.2-10.8,2.4-16.2,3.4c-13.7,2.5-26.2-0.3-39.4-3.4h-6.6C471.5,0.4,473.3,0.9,475.1,1.3z"/>
			<path class="st1" d="M624.6,1.6c18.8,5.2,38.3,10.5,59.2,7.1c9.4-1.5,18.5-4.6,27.4-7.5c1.1-0.4,2.3-0.8,3.4-1.1h-4.7
				c-8.5,2.8-17.3,5.7-26.3,7.2c-20.6,3.4-39.9-1.9-58.5-7c-0.2-0.1-0.4-0.1-0.6-0.2h-5.6C620.7,0.5,622.7,1.1,624.6,1.6z"/>
		</g>
		<path class="st1" d="M855.7,23c-8,1.6-16.3,3.3-24.9,3.4c-2,0-4,0-6,0c-6.3-0.1-12.8-0.2-19.1,1.3c-4.5,1.1-8.7,2.9-12.9,4.7
			c-2.4,1-4.8,2.1-7.3,3c-16.6,6-35.9,4.9-51.7-2.8c-2.4-1.2-4.8-2.5-7.1-3.8c-5.8-3.2-11.7-6.6-18.3-7.6c-10-1.5-19.6,2.3-28.9,6.1
			c-3,1.2-6.2,2.5-9.2,3.5c-20.2,6.9-43.5,5.2-62.5-4.5c-2.2-1.1-4.3-2.3-6.4-3.5c-5.3-3-10.8-6.1-16.9-7.6
			c-13.3-3.1-26.8,2.2-37,7.2c-2.2,1.1-4.5,2.2-6.6,3.3c-13.8,7.1-26.9,13.7-42.5,11c-9.6-1.7-19-5-28.1-8.2
			c-7.6-2.7-15.5-5.5-23.5-7.3c-0.1,0-0.1,0-0.2,0l0,0c-13.1-3-24.9-0.6-37.3,1.9c-8,1.6-16.3,3.3-24.9,3.4c-2,0-4,0-6,0
			c-6.3-0.1-12.8-0.2-19.1,1.3c-4.5,1.1-8.7,2.9-12.9,4.7c-2.4,1-4.8,2.1-7.3,3c-16.6,6-35.9,4.9-51.7-2.8c-2.4-1.2-4.8-2.5-7.1-3.8
			c-5.8-3.2-11.7-6.6-18.3-7.6c-10-1.5-19.6,2.3-28.9,6.1c-3,1.2-6.2,2.5-9.2,3.5c-20.2,6.9-43.5,5.2-62.5-4.5
			c-2.2-1.1-4.3-2.3-6.4-3.5c-5.3-3-10.8-6.1-16.9-7.6c-13.3-3.1-26.8,2.2-37,7.2c-2.2,1.1-4.5,2.2-6.6,3.3
			c-13.8,7.1-26.9,13.7-42.5,11c-9.6-1.7-19-5-28.1-8.2C16,25.8,8.2,23,0.2,21.2c-0.1,0-0.1,0-0.2,0v1.5c7.9,1.8,15.6,4.6,23.2,7.2
			c9.1,3.2,18.6,6.6,28.3,8.3c16.1,2.8,30-4.3,43.4-11.1c2.2-1.1,4.4-2.2,6.6-3.3c10-4.9,23.2-10.2,36-7.1
			c5.9,1.4,11.3,4.5,16.5,7.4c2.1,1.2,4.3,2.4,6.5,3.5c9.6,4.9,20.4,7.8,31.4,8.6c11,0.8,22.1-0.6,32.3-4.1c3.1-1.1,6.3-2.3,9.3-3.6
			c9.1-3.7,18.5-7.5,28.1-6c6.4,1,12.2,4.3,17.8,7.5c2.3,1.3,4.7,2.7,7.2,3.9c9.2,4.5,19.6,6.8,30,6.8c7.8,0,15.6-1.3,22.9-3.9
			c2.5-0.9,5-2,7.4-3c4.1-1.7,8.3-3.6,12.6-4.6c6.1-1.4,12.5-1.4,18.7-1.3c2,0,4,0.1,6,0c8.8-0.1,17.1-1.8,25.2-3.4
			c12.3-2.5,24-4.8,36.9-1.9c0.1,0,0.1,0,0.2,0v0c7.9,1.8,15.6,4.6,23.2,7.2c9.1,3.2,18.6,6.6,28.3,8.3c16.1,2.8,30-4.3,43.4-11.1
			c2.2-1.1,4.4-2.2,6.6-3.3c10-4.9,23.2-10.2,36-7.1C590,18,595.4,21,600.6,24c2.1,1.2,4.3,2.4,6.5,3.5c9.6,4.9,20.4,7.8,31.4,8.6
			c11,0.8,22.1-0.6,32.3-4.1c3.1-1.1,6.3-2.3,9.3-3.6c9.1-3.7,18.5-7.5,28.1-6c6.4,1,12.2,4.3,17.8,7.5c2.3,1.3,4.7,2.7,7.2,3.9
			c9.2,4.5,19.6,6.8,30,6.8c7.8,0,15.6-1.3,22.9-3.9c2.5-0.9,5-2,7.4-3c4.1-1.7,8.3-3.6,12.6-4.6c6.1-1.4,12.5-1.4,18.7-1.3
			c2,0,4,0.1,6,0c8.8-0.1,17.1-1.8,25.2-3.4c12.3-2.5,24-4.8,36.9-1.9c0.1,0,0.1,0,0.2,0v-1.5C879.9,18.2,868.2,20.5,855.7,23z"/>
		<path class="st1" d="M893,51.3c-9.8,0.1-19.1,3-28,5.9c-13.4,4.2-26,8.2-40.3,4c-3.8-1.1-7.6-2.8-11.2-4.4
			c-6.6-2.9-13.5-5.9-20.8-5.8c-8.3,0.2-15.6,4.3-22.8,8.3c-3.2,1.8-6.5,3.6-9.9,5.1c-12.6,5.5-24.6,2.9-37.4,0.2
			c-9-1.9-18.3-3.9-27.7-2.8c-7.2,0.9-14.4,3.2-21.3,5.5c-11.6,3.8-23.5,7.7-35.8,4.8c-7.4-1.7-14-6-20.4-10.1
			c-0.8-0.5-1.6-1-2.4-1.5c-23.5-15-43.7-19.4-59.9-13.1c-5.8,2.3-11.1,6-16.3,9.6c-7.9,5.5-16,11.3-25.9,11.6
			c-10.3,0.4-20.3-4.1-30-8.4c-7-3.1-14.3-6.4-21.6-7.8c-4.8-0.9-9.6-1.3-14.9-1.2c0,0,0,0,0,0c-9.8,0.1-19.1,3-28,5.9
			c-13.4,4.2-26,8.2-40.3,4c-3.8-1.1-7.6-2.8-11.2-4.4c-6.6-2.9-13.5-5.9-20.8-5.8c-8.3,0.2-15.6,4.3-22.8,8.3
			c-3.2,1.8-6.5,3.6-9.9,5.1c-12.6,5.5-24.6,2.9-37.4,0.2c-9-1.9-18.3-3.9-27.7-2.8c-7.2,0.9-14.4,3.2-21.3,5.5
			c-11.6,3.8-23.5,7.7-35.8,4.8c-7.4-1.7-14-6-20.4-10.1c-0.8-0.5-1.6-1-2.4-1.5c-23.5-15-43.7-19.4-59.9-13.1
			c-5.8,2.3-11.1,6-16.3,9.6c-7.9,5.5-16,11.3-25.9,11.6c-10.3,0.4-20.3-4.1-30-8.4c-7-3.1-14.3-6.4-21.6-7.8
			c-4.8-0.9-9.6-1.3-14.9-1.2v1.5c0,0,0,0,0,0c5.1-0.1,9.9,0.3,14.6,1.2c7.2,1.3,14.3,4.6,21.3,7.7c9.8,4.4,20,9,30.6,8.6
			c10.3-0.4,18.7-6.2,26.7-11.9c5.1-3.6,10.3-7.3,16-9.5c15.7-6.2,35.5-1.8,58.6,12.9c0.8,0.5,1.6,1,2.3,1.5
			c6.5,4.2,13.2,8.5,20.8,10.3c3.1,0.7,6.1,1,9.2,1c9.4,0,18.5-3,27.4-5.9c6.9-2.2,14-4.6,21-5.4c9.2-1.1,18.4,0.8,27.2,2.8
			c12.4,2.7,25.2,5.4,38.3-0.3c3.4-1.5,6.8-3.4,10-5.2c7.3-4.1,14.2-7.9,22.1-8.1c7-0.2,13.4,2.7,20.2,5.6c3.7,1.6,7.5,3.3,11.4,4.4
			c14.8,4.3,28.2,0.1,41.2-4c8.9-2.8,18.1-5.7,27.6-5.8c0,0,0,0,0,0c5.1-0.1,9.9,0.3,14.6,1.2c7.2,1.3,14.3,4.6,21.3,7.7
			c9.8,4.4,20,9,30.6,8.6c10.3-0.4,18.7-6.2,26.7-11.9c5.1-3.6,10.3-7.3,16-9.5c15.7-6.2,35.5-1.8,58.6,12.9c0.8,0.5,1.6,1,2.3,1.5
			c6.5,4.2,13.2,8.5,20.8,10.3c3.1,0.7,6.1,1,9.2,1c9.4,0,18.5-3,27.4-5.9c6.9-2.2,14-4.6,21-5.4c9.2-1.1,18.4,0.8,27.2,2.8
			c12.4,2.7,25.2,5.4,38.3-0.3c3.4-1.5,6.8-3.4,10-5.2c7.3-4.1,14.2-7.9,22.1-8.1c7-0.2,13.4,2.7,20.2,5.6c3.7,1.6,7.5,3.3,11.4,4.4
			c14.8,4.3,28.2,0.1,41.2-4c8.9-2.8,18.1-5.7,27.6-5.8L893,51.3C893,51.3,893,51.3,893,51.3z"/>
		<path class="st1" d="M893,89.7c-6.2,0.2-11.8,1.3-17.2,2.4c-8.9,1.7-17.3,3.4-27.7,1.2c-2.1-0.4-4.2-0.9-6.3-1.4
			c-9.6-2.2-19.5-4.4-29.4-3c-6.7,1-12.9,3.6-19,6.2c-3.6,1.5-7.3,3.1-11.1,4.3c-15.6,5-33.8,4.1-48.5-2.4l-0.9-0.4
			c-13-5.7-24.2-10.7-39.3-6c-5.5,1.7-10.7,4.4-15.8,7c-7.4,3.9-14.5,7.5-22.5,8.3c-11.6,1.1-22.5-4.3-33-9.6
			c-3.7-1.8-7.4-3.7-11.2-5.3c-9.6-4-19.7-6.4-30.1-7c-10.6-0.6-20.9,0.6-30.7,3.7c-5.8,1.8-11.5,4.3-17,6.7
			c-11.3,5-23,10.1-35.7,9.5c-8.9-0.5-16.5-3.8-23.9-7c-8.3-3.6-16.8-7.4-27.3-7c0,0,0,0,0,0c-6.2,0.2-11.8,1.3-17.2,2.4
			c-8.9,1.7-17.3,3.4-27.7,1.2c-2.1-0.4-4.2-0.9-6.3-1.4c-9.6-2.2-19.5-4.4-29.4-3c-6.7,1-12.9,3.6-19,6.2
			c-3.6,1.5-7.3,3.1-11.1,4.3c-15.6,5-33.8,4.1-48.5-2.4l-0.9-0.4c-13-5.7-24.2-10.7-39.3-6c-5.5,1.7-10.7,4.4-15.8,7
			c-7.4,3.9-14.5,7.5-22.5,8.3c-11.6,1.1-22.5-4.3-33-9.6c-3.7-1.8-7.4-3.7-11.2-5.3c-9.6-4-19.7-6.4-30.1-7
			c-10.6-0.6-20.9,0.6-30.7,3.7c-5.8,1.8-11.5,4.3-17,6.7c-11.3,5-23,10.1-35.7,9.5c-8.9-0.5-16.5-3.8-23.9-7
			c-8.3-3.6-16.8-7.4-27.3-7v1.5c0,0,0,0,0,0c10.1-0.4,18.1,3.2,26.6,6.9c7.5,3.3,15.2,6.7,24.4,7.2c13,0.7,24.9-4.5,36.4-9.6
			c5.5-2.4,11.2-4.9,16.9-6.7c18.9-5.9,40.7-4.7,59.8,3.3c3.7,1.6,7.5,3.4,11.1,5.2c9.8,4.9,19.9,9.9,30.7,9.9c1,0,2.1,0,3.1-0.1
			c8.3-0.8,15.8-4.7,23-8.4c5-2.6,10.2-5.3,15.5-6.9c14.6-4.5,25.1,0.1,38.3,6l0.9,0.4c15,6.6,33.6,7.6,49.5,2.5
			c3.8-1.2,7.6-2.8,11.2-4.3c6-2.5,12.2-5.1,18.7-6.1c9.6-1.4,19.4,0.8,28.8,3c2.1,0.5,4.2,1,6.3,1.4c10.7,2.2,19.3,0.6,28.3-1.2
			c5.3-1,10.9-2.1,16.9-2.4v0c0,0,0,0,0,0c10.1-0.4,18.1,3.2,26.6,6.9c7.5,3.3,15.2,6.7,24.4,7.2c13,0.7,24.9-4.5,36.4-9.6
			c5.5-2.4,11.2-4.9,16.9-6.7c18.9-5.9,40.7-4.7,59.8,3.3c3.7,1.6,7.5,3.4,11.1,5.2c9.8,4.9,19.9,9.9,30.7,9.9c1,0,2.1,0,3.1-0.1
			c8.3-0.8,15.8-4.7,23-8.4c5-2.6,10.2-5.3,15.5-6.9c14.6-4.5,25.1,0.1,38.3,6l0.9,0.4c15,6.6,33.6,7.6,49.5,2.5
			c3.8-1.2,7.6-2.8,11.2-4.3c6-2.5,12.2-5.1,18.7-6.1c9.6-1.4,19.4,0.8,28.8,3c2.1,0.5,4.2,1,6.3,1.4c10.7,2.2,19.3,0.6,28.3-1.2
			c5.3-1,10.9-2.1,16.9-2.4L893,89.7C893,89.7,893,89.7,893,89.7z"/>
		<path class="st1" d="M892.9,156.3c-6.9,1.3-13.3,3.2-19.5,5.2c-12.8,3.9-24.9,7.7-39.8,5.1c-4.5-0.8-9-2-13.3-3.1
			c-8.4-2.2-17.1-4.6-26-3.9c-6.9,0.5-13.8,2.8-20.4,5c-10.2,3.4-19.8,6.6-29.5,3.8c-5.6-1.6-10.5-5.2-15.2-8.6
			c-4.6-3.3-9.3-6.8-14.8-8.6c-12.6-4.2-25.5,1.1-37.9,6.3c-11.2,4.6-22.7,9.4-34.2,7.4c-5.8-1-11.1-3.8-16.3-6.4
			c-5.2-2.7-10.7-5.4-16.5-6.5c-12.3-2.3-24,2.8-35.4,7.8c-6.8,3-13.8,6-20.9,7.5c-16,3.4-30-1.3-44.8-6.3c-6.6-2.2-13.4-4.5-20.3-6
			c-15.3-3.3-28.6-0.8-41.5,1.5v0c0,0-0.1,0-0.1,0c-6.9,1.3-13.3,3.2-19.5,5.2c-12.8,3.9-24.9,7.7-39.8,5.1c-4.5-0.8-9-2-13.3-3.1
			c-8.4-2.2-17.1-4.6-26-3.9c-6.9,0.5-13.8,2.8-20.4,5c-10.2,3.4-19.8,6.6-29.5,3.8c-5.6-1.6-10.5-5.2-15.2-8.6
			c-4.6-3.3-9.3-6.8-14.8-8.6c-12.6-4.2-25.5,1.1-37.9,6.3c-11.2,4.6-22.7,9.4-34.2,7.4c-5.8-1-11.1-3.8-16.3-6.4
			c-5.2-2.7-10.7-5.4-16.5-6.5c-12.3-2.3-24,2.8-35.4,7.8c-6.8,3-13.8,6-20.9,7.5c-16,3.4-30-1.3-44.8-6.3c-6.6-2.2-13.4-4.5-20.3-6
			c-15.3-3.3-28.6-0.8-41.5,1.5v1.5c0,0,0.1,0,0.1,0c12.8-2.4,26-4.8,41-1.6c6.9,1.5,13.6,3.8,20.2,6c14.3,4.8,29.1,9.8,45.5,6.3
			c7.3-1.5,14.4-4.6,21.2-7.6c11.7-5.1,22.7-9.9,34.5-7.7c5.7,1.1,11,3.8,16.1,6.4c5.3,2.7,10.8,5.5,16.8,6.6c2,0.4,3.9,0.5,5.9,0.5
			c9.9,0,19.6-4,29.1-8c12.7-5.3,24.7-10.2,36.9-6.2c5.2,1.7,9.9,5.1,14.4,8.4c4.8,3.5,9.9,7.2,15.7,8.8c2.7,0.8,5.4,1.1,8.1,1.1
			c7.5,0,15-2.5,22.3-5c6.5-2.2,13.3-4.5,20.1-4.9c8.6-0.6,17.2,1.7,25.5,3.9c4.4,1.2,8.9,2.4,13.5,3.2c3.5,0.6,6.9,0.9,10.1,0.9
			c10.8,0,20.4-2.9,30.3-6c6.1-1.9,12.4-3.8,19.2-5.1v0c0,0,0.1,0,0.1,0c12.8-2.4,26-4.8,41-1.6c6.9,1.5,13.6,3.8,20.2,6
			c14.3,4.8,29.1,9.8,45.5,6.3c7.3-1.5,14.4-4.6,21.2-7.6c11.7-5.1,22.7-9.9,34.5-7.7c5.7,1.1,11,3.8,16.1,6.4
			c5.3,2.7,10.8,5.5,16.8,6.6c2,0.4,3.9,0.5,5.9,0.5c9.9,0,19.6-4,29.1-8c12.7-5.3,24.7-10.2,36.9-6.2c5.2,1.7,9.9,5.1,14.4,8.4
			c4.8,3.5,9.9,7.2,15.7,8.8c2.7,0.8,5.4,1.1,8.1,1.1c7.5,0,15-2.5,22.3-5c6.5-2.2,13.3-4.5,20.1-4.9c8.6-0.6,17.2,1.7,25.5,3.9
			c4.4,1.2,8.9,2.4,13.5,3.2c3.5,0.6,6.9,0.9,10.1,0.9c10.8,0,20.4-2.9,30.3-6c6.1-1.9,12.4-3.8,19.2-5.1v-1.5
			C893,156.3,893,156.3,892.9,156.3z"/>
		<path class="st1" d="M890.4,180.5c-11.3,0.6-21.1,5.8-30.6,10.9c-9,4.8-17.5,9.3-27,10.1c-8.6,0.7-17-2-25.1-4.7
			c-9.1-3-18.6-6.1-28.5-4.4c-5.8,1-11.3,3.6-16.6,6.2c-8,3.9-15.5,7.5-23.6,5.8c-6-1.3-10.7-5.2-15.7-9.3
			c-3.4-2.8-6.9-5.7-10.8-7.7c-13.5-6.8-29.3-2.5-44.4,3.2l-0.4,0.2c-13.6,5.1-29,11-42.9,6.3c-4.7-1.6-9-4.3-13.3-6.9
			c-5-3.1-10.1-6.4-16-7.8c-12-2.8-23.6,2.5-34.8,7.7c-4.5,2.1-9.2,4.3-13.9,5.9c-21.7,7.4-39.9,1-59.1-5.9
			c-13.1-4.7-26.6-9.5-41.4-9.6c0,0,0,0,0,0c-0.9,0-1.8,0-2.7,0.1c-11.3,0.6-21.1,5.8-30.6,10.9c-9,4.8-17.5,9.3-27,10.1
			c-8.6,0.7-17-2-25.1-4.7c-9.1-3-18.6-6.1-28.5-4.4c-5.8,1-11.3,3.6-16.6,6.2c-8,3.9-15.5,7.5-23.6,5.8c-6-1.3-10.7-5.2-15.7-9.3
			c-3.4-2.8-6.9-5.7-10.8-7.7c-13.5-6.8-29.3-2.5-44.4,3.2l-0.4,0.2c-13.6,5.1-29,11-42.9,6.3c-4.7-1.6-9-4.3-13.3-6.9
			c-5-3.1-10.1-6.4-16-7.8c-12-2.8-23.6,2.5-34.8,7.7c-4.5,2.1-9.2,4.3-13.9,5.9c-21.7,7.4-39.9,1-59.1-5.9
			c-13.1-4.7-26.6-9.5-41.4-9.6c0,0,0,0,0,0v1.5c14.5,0,27.9,4.8,40.9,9.5c18.6,6.7,37.8,13.5,60.1,5.9c4.7-1.6,9.4-3.8,14-5.9
			c11-5.1,22.3-10.3,33.8-7.6c5.6,1.3,10.7,4.5,15.5,7.6c4.3,2.7,8.7,5.5,13.6,7.1c3.7,1.2,7.6,1.8,11.4,1.8c11,0,22.2-4.3,32.5-8.1
			l0.4-0.2c14.8-5.6,30.2-9.8,43.2-3.3c3.8,1.9,7.2,4.8,10.5,7.5c4.9,4.1,10,8.3,16.3,9.6c1.5,0.3,3,0.5,4.4,0.5
			c7,0,13.7-3.2,20.1-6.4c5.2-2.5,10.6-5.1,16.2-6.1c9.6-1.6,18.8,1.4,27.8,4.4c8.2,2.7,16.8,5.5,25.6,4.8
			c9.8-0.8,18.8-5.6,27.5-10.3c9.3-5,19-10.1,29.9-10.7c0.9,0,1.7-0.1,2.6-0.1c0,0,0,0,0,0c14.5,0,27.9,4.8,40.9,9.5
			c18.6,6.7,37.8,13.5,60.1,5.9c4.7-1.6,9.4-3.8,14-5.9c11-5.1,22.3-10.3,33.8-7.6c5.6,1.3,10.7,4.5,15.5,7.6
			c4.3,2.7,8.7,5.5,13.6,7.1c3.7,1.2,7.6,1.8,11.4,1.8c11,0,22.2-4.3,32.5-8.1l0.4-0.2c14.8-5.6,30.2-9.8,43.2-3.3
			c3.8,1.9,7.2,4.8,10.5,7.5c4.9,4.1,10,8.3,16.3,9.6c1.5,0.3,3,0.5,4.4,0.5c7,0,13.7-3.2,20.1-6.4c5.2-2.5,10.6-5.1,16.2-6.1
			c9.6-1.6,18.8,1.4,27.8,4.4c8.2,2.7,16.8,5.5,25.6,4.8c9.8-0.8,18.8-5.6,27.5-10.3c9.3-5,19-10.1,29.9-10.7c0.9,0,1.7-0.1,2.6-0.1
			c0,0,0,0,0,0v-1.5C892.2,180.5,891.3,180.5,890.4,180.5z"/>
		<path class="st1" d="M890.4,409.1c-14.6,0.8-28.5,6.5-42,11.9c-23.2,9.5-45.2,18.4-69.7,3.6c-3.3-2-6.6-4.3-9.8-6.5
			c-5.5-3.8-11.1-7.8-17.4-10.5c-11.2-4.8-24.2-5.5-35.8-1.8c-5.9,1.9-11.4,4.9-16.8,7.7c-6.3,3.4-12.8,6.9-19.8,8.5
			c-16.3,3.9-32-2.3-48.6-8.7c-14.2-5.5-28.9-11.3-44-10c-12.6,1-23.1,7.1-33.2,13c-12.5,7.3-24.4,14.2-40,12.1
			c-10.3-1.4-20.1-5.5-29.6-9.5c-11.8-4.9-23.9-10-37.3-10.1c0,0,0,0,0,0c-0.9,0-1.8,0-2.7,0.1c-14.6,0.8-28.5,6.5-42,11.9
			c-23.2,9.5-45.2,18.4-69.7,3.6c-3.3-2-6.6-4.3-9.8-6.5c-5.5-3.8-11.1-7.8-17.4-10.5c-11.2-4.8-24.2-5.5-35.8-1.8
			c-5.9,1.9-11.4,4.9-16.8,7.7c-6.3,3.4-12.8,6.9-19.8,8.5c-16.3,3.9-32-2.3-48.6-8.7c-14.2-5.5-28.9-11.3-44-10
			c-12.6,1-23.1,7.1-33.2,13c-12.5,7.3-24.4,14.2-40,12.1c-10.3-1.4-20.1-5.5-29.6-9.5C25.5,414.1,13.4,409,0,409c0,0,0,0,0,0v1.5
			c13.1,0,25.1,5.1,36.7,9.9c9.6,4,19.5,8.1,30,9.6c16.1,2.2,28.7-5.2,40.9-12.3c10-5.8,20.3-11.8,32.6-12.8
			c14.7-1.2,29.3,4.5,43.3,9.9c16.1,6.3,32.7,12.8,49.4,8.8c7.2-1.7,13.8-5.2,20.2-8.7c5.3-2.8,10.8-5.8,16.5-7.6
			c11.3-3.6,23.9-3,34.8,1.7c6.1,2.6,11.7,6.6,17.1,10.3c3.2,2.2,6.5,4.5,9.8,6.6c8.9,5.4,18.2,8,28.1,8c2.7,0,5.4-0.2,8.2-0.6
			c11.7-1.6,23.4-6.4,34.7-11c13.3-5.4,27.1-11,41.5-11.8c0.9,0,1.7-0.1,2.6-0.1c0,0,0,0,0,0c13.1,0,25.1,5.1,36.7,9.9
			c9.6,4,19.5,8.1,30,9.6c16.1,2.2,28.7-5.2,40.9-12.3c10-5.8,20.3-11.8,32.6-12.8c14.7-1.2,29.3,4.5,43.3,9.9
			c16.1,6.3,32.7,12.8,49.4,8.8c7.2-1.7,13.8-5.2,20.2-8.7c5.3-2.8,10.8-5.8,16.5-7.6c11.3-3.6,23.9-3,34.8,1.7
			c6.1,2.6,11.7,6.6,17.1,10.3c3.2,2.2,6.5,4.5,9.8,6.6c8.9,5.4,18.2,8,28.1,8c2.7,0,5.4-0.2,8.2-0.6c11.7-1.6,23.4-6.4,34.7-11
			c13.3-5.4,27.1-11,41.5-11.8c0.9,0,1.7-0.1,2.6-0.1c0,0,0,0,0,0V409C892.1,409,891.3,409,890.4,409.1z"/>
		<path class="st1" d="M850.7,217.6c-5.5,1.2-10.5,3.8-15.3,6.4c-6,3.2-12.2,6.4-19.2,6.8c-7.2,0.4-13.8-2.2-20.3-4.7
			c-4.5-1.8-9.1-3.6-14-4.4c-9.3-1.6-14.7,1.4-20.9,4.9c-2.3,1.3-4.6,2.6-7.3,3.8c-9.1,4.1-19.2,0.1-29-3.8
			c-2.1-0.9-4.4-1.7-6.5-2.5c-20.1-7.2-37.1-7.8-57-2c-2.7,0.8-5.4,1.6-8,2.4c-12.1,3.7-24.7,7.6-37.4,7.2
			c-11.6-0.4-22.9-4.5-33.8-8.4c-3.2-1.2-6.5-2.3-9.8-3.4c-18.7-6.2-33.3-6.5-46-1.2c-4.4,1.8-8.4,4.2-12.4,6.5
			c-7.8,4.5-15.2,8.8-24.7,9.3c-10.7,0.5-21.5-3.7-31.9-7.7c-3.5-1.3-7.1-2.7-10.5-3.9c-0.1,0-0.2-0.1-0.2-0.1v0
			c-11.3-3.7-27.9-8.3-42.4-5.1c-5.5,1.2-10.5,3.8-15.3,6.4c-6,3.2-12.2,6.4-19.2,6.8c-7.2,0.4-13.8-2.2-20.3-4.7
			c-4.5-1.8-9.1-3.6-14-4.4c-9.3-1.6-14.7,1.4-20.9,4.9c-2.3,1.3-4.6,2.6-7.3,3.8c-9.1,4.1-19.2,0.1-29-3.8
			c-2.1-0.9-4.4-1.7-6.5-2.5c-20.1-7.2-37.1-7.8-57-2c-2.7,0.8-5.4,1.6-8,2.4c-12.1,3.7-24.7,7.6-37.4,7.2
			c-11.6-0.4-22.9-4.5-33.8-8.4c-3.2-1.2-6.5-2.3-9.8-3.4c-18.7-6.2-33.3-6.5-46-1.2c-4.4,1.8-8.4,4.2-12.4,6.5
			c-7.8,4.5-15.2,8.8-24.7,9.3c-10.7,0.5-21.5-3.7-31.9-7.7c-3.5-1.3-7.1-2.7-10.5-3.9c-0.1,0-0.2-0.1-0.2-0.1v1.6
			c3.3,1.1,6.7,2.4,10.2,3.8c10,3.9,20.4,7.8,30.8,7.8c0.6,0,1.2,0,1.7,0c9.8-0.4,17.7-5,25.3-9.5c3.9-2.3,7.9-4.6,12.2-6.4
			c12.4-5.2,26.6-4.8,45,1.2c3.3,1.1,6.6,2.3,9.8,3.4c11,4,22.4,8,34.3,8.5c13,0.5,25.6-3.4,37.9-7.2c2.6-0.8,5.3-1.6,8-2.4
			c19.6-5.7,36.4-5.1,56.1,1.9c2.1,0.8,4.3,1.6,6.5,2.5c10.1,4,20.5,8.2,30.1,3.8c2.8-1.3,5.1-2.6,7.4-3.8
			c6.2-3.5,11.1-6.2,19.9-4.7c4.7,0.8,9.3,2.6,13.7,4.3c6.6,2.6,13.4,5.3,20.9,4.8c7.3-0.4,13.7-3.8,19.8-7c4.8-2.5,9.7-5.1,15-6.3
			c14.2-3.1,30.7,1.4,41.8,5.1c0.1,0,0.2,0.1,0.2,0.1v0c3.3,1.1,6.7,2.4,10.2,3.8c10,3.9,20.4,7.8,30.8,7.8c0.6,0,1.2,0,1.7,0
			c9.8-0.4,17.7-5,25.3-9.5c3.9-2.3,7.9-4.6,12.2-6.4c12.4-5.2,26.6-4.8,45,1.2c3.3,1.1,6.6,2.3,9.8,3.4c11,4,22.4,8,34.3,8.5
			c13,0.5,25.6-3.4,37.9-7.2c2.6-0.8,5.3-1.6,8-2.4c19.6-5.7,36.4-5.1,56.1,1.9c2.1,0.8,4.3,1.6,6.5,2.5c10.1,4,20.5,8.2,30.1,3.8
			c2.8-1.3,5.1-2.6,7.4-3.8c6.2-3.5,11.1-6.2,19.9-4.7c4.7,0.8,9.3,2.6,13.7,4.3c6.6,2.6,13.4,5.3,20.9,4.8c7.3-0.4,13.7-3.8,19.8-7
			c4.8-2.5,9.7-5.1,15-6.3c14.2-3.1,30.7,1.4,41.8,5.1c0.1,0,0.2,0.1,0.2,0.1v-1.6C881.7,219,865.2,214.5,850.7,217.6z"/>
		<path class="st1" d="M823.7,246.4c-5.9,2.2-11.6,4.9-17.1,7.5c-14.4,6.9-28,13.4-44.2,9.9c-5.8-1.3-11.6-3-17.7-4.8
			c-17.1-5-34.8-10.2-51.9-5.4c-5.2,1.4-10,3.8-14.8,6.1c-5.6,2.7-11.4,5.5-17.5,6.7c-16.1,3.1-31-4.5-45.5-12
			c-5.2-2.7-10.6-5.4-15.8-7.6c-23.6-9.6-41.7-1.5-62.7,8c-2,0.9-4.1,1.8-6.2,2.8c-23,10.2-43.7,3.3-65.6-3.9
			c-5.8-1.9-11.9-3.9-18-5.6c-0.1,0-0.1,0-0.2-0.1v0c-24.1-6.6-44.5-10.8-69.3-1.8c-5.9,2.2-11.6,4.9-17.1,7.5
			c-14.4,6.9-28,13.4-44.2,9.9c-5.8-1.3-11.6-3-17.7-4.8c-17.1-5-34.8-10.2-51.9-5.4c-5.2,1.4-10,3.8-14.8,6.1
			c-5.6,2.7-11.4,5.5-17.5,6.7c-16.1,3.1-31-4.5-45.5-12c-5.2-2.7-10.6-5.4-15.8-7.6c-23.6-9.6-41.7-1.5-62.7,8
			c-2,0.9-4.1,1.8-6.2,2.8c-23,10.2-43.7,3.3-65.6-3.9c-5.8-1.9-11.9-3.9-18-5.6c-0.1,0-0.1,0-0.2-0.1v1.5c6,1.6,11.9,3.6,17.7,5.5
			c22.2,7.3,43.1,14.3,66.7,3.8c2.1-0.9,4.1-1.9,6.2-2.8c20.6-9.3,38.5-17.3,61.5-8c5.2,2.1,10.3,4.7,15.7,7.5
			c12.3,6.3,25,12.8,38.6,12.8c2.6,0,5.2-0.2,7.8-0.7c6.3-1.2,12.2-4.1,17.9-6.8c4.7-2.3,9.5-4.6,14.5-6c16.7-4.7,34.2,0.5,51.1,5.4
			c6.2,1.8,12,3.5,17.8,4.8c3.3,0.7,6.4,1,9.5,1c12.6,0,23.9-5.4,35.7-11.1c5.5-2.6,11.2-5.4,17-7.5c24.4-8.9,44.7-4.7,68.6,1.9
			c0.1,0,0.1,0,0.2,0.1v0c6,1.6,11.9,3.6,17.7,5.5c22.2,7.3,43.1,14.3,66.7,3.8c2.1-0.9,4.1-1.9,6.2-2.8c20.6-9.3,38.5-17.3,61.5-8
			c5.2,2.1,10.3,4.7,15.7,7.5c12.3,6.3,25,12.8,38.6,12.8c2.6,0,5.2-0.2,7.8-0.7c6.3-1.2,12.2-4.1,17.9-6.8c4.7-2.3,9.5-4.6,14.5-6
			c16.7-4.7,34.2,0.5,51.1,5.4c6.2,1.8,12,3.5,17.8,4.8c3.3,0.7,6.4,1,9.5,1c12.6,0,23.9-5.4,35.7-11.1c5.5-2.6,11.2-5.4,17-7.5
			c24.4-8.9,44.7-4.7,68.6,1.9c0.1,0,0.1,0,0.2,0.1v-1.5C868.9,241.6,848.5,237.3,823.7,246.4z"/>
		<path class="st1" d="M891.7,272.6c-4.9-0.5-8.1,2-11.6,4.6c-1.9,1.4-3.9,2.9-6.1,3.9c-6.2,2.7-13.2,3.7-19.8,2.7
			c-4.6-0.7-9.3-2.3-13.7-3.8c-7-2.4-14.2-4.9-21.7-3.9c-7.3,1-13.6,5.1-19.6,9.1c-3.8,2.5-7.8,5.1-12,6.9
			c-11,4.7-24.5,4.3-42.3-1.2c-3.4-1-6.8-2.2-10.2-3.3c-10.4-3.5-21.1-7.2-32.2-7.8c-12.6-0.7-24.2,3.3-35.4,7.2
			c-12.5,4.3-24.3,8.4-37.5,6.5c-9.4-1.3-18.4-5.3-27.1-9c-11.4-5-23.3-10.1-36.4-9.6c-9.3,0.4-17.9,3.6-26.3,6.7
			c-9.7,3.6-19.7,7.3-30.6,6.5c-11.2-0.8-22.1-4.3-32.7-7.7c-9.7-3.1-19.7-6.3-30-7.5c0,0-0.1,0-0.1,0v0c-0.5-0.1-0.9-0.1-1.4-0.1
			c-4.9-0.5-8.1,2-11.6,4.6c-1.9,1.4-3.9,2.9-6.1,3.9c-6.2,2.7-13.2,3.7-19.8,2.7c-4.6-0.7-9.3-2.3-13.7-3.8
			c-7-2.4-14.2-4.9-21.7-3.9c-7.3,1-13.6,5.1-19.6,9.1c-3.8,2.5-7.8,5.1-12,6.9c-11,4.7-24.5,4.3-42.3-1.2c-3.4-1-6.8-2.2-10.2-3.3
			c-10.4-3.5-21.1-7.2-32.2-7.8c-12.6-0.7-24.2,3.3-35.4,7.2c-12.5,4.3-24.3,8.4-37.5,6.5c-9.4-1.3-18.4-5.3-27.1-9
			c-11.4-5-23.3-10.1-36.4-9.6c-9.3,0.4-17.9,3.6-26.3,6.7c-9.7,3.6-19.7,7.3-30.6,6.5c-11.2-0.8-22.1-4.3-32.7-7.7
			c-9.7-3.1-19.7-6.3-30-7.5c0,0-0.1,0-0.1,0v1.5c5,0.6,10,1.7,15,3c5,1.3,9.8,2.9,14.6,4.4c10.6,3.4,21.6,6.9,33,7.8
			c11.1,0.8,21.3-2.9,31.2-6.6c8.3-3.1,16.8-6.2,25.8-6.6c12.7-0.6,24.4,4.5,35.7,9.5c8.8,3.8,17.8,7.8,27.4,9.2
			c13.5,1.9,26-2.4,38.2-6.6c11.1-3.8,22.5-7.8,34.8-7.1c10.9,0.7,21.5,4.3,31.8,7.8c3.3,1.1,6.8,2.3,10.2,3.4
			c9.8,3,18.3,4.5,25.8,4.5c6.5,0,12.3-1.1,17.5-3.4c4.3-1.8,8.3-4.5,12.2-7.1c6.2-4.1,12-7.9,19-8.8c7.1-0.9,13.9,1.4,21,3.9
			c4.5,1.6,9.2,3.2,14,3.9c6.9,1,14,0,20.6-2.8c2.4-1.1,4.4-2.6,6.4-4c3.3-2.4,6.3-4.7,10.6-4.3c0.5,0,1,0.1,1.4,0.2
			c0,0,0.1,0,0.1,0v0c5,0.6,10,1.7,15,3c5,1.3,9.8,2.9,14.6,4.4c10.6,3.4,21.6,6.9,33,7.8c11.1,0.8,21.3-2.9,31.2-6.6
			c8.3-3.1,16.8-6.2,25.8-6.6c12.7-0.6,24.4,4.5,35.7,9.5c8.8,3.8,17.8,7.8,27.4,9.2c13.5,1.9,26-2.4,38.2-6.6
			c11.1-3.8,22.5-7.8,34.8-7.1c10.9,0.7,21.5,4.3,31.8,7.8c3.3,1.1,6.8,2.3,10.2,3.4c9.8,3,18.3,4.5,25.8,4.5
			c6.5,0,12.3-1.1,17.5-3.4c4.3-1.8,8.3-4.5,12.2-7.1c6.2-4.1,12-7.9,19-8.8c7.1-0.9,13.9,1.4,21,3.9c4.5,1.6,9.2,3.2,14,3.9
			c6.9,1,14,0,20.6-2.8c2.4-1.1,4.4-2.6,6.4-4c3.3-2.4,6.3-4.7,10.6-4.3c0.5,0,1,0.1,1.4,0.2c0,0,0.1,0,0.1,0v-1.5
			C892.6,272.7,892.1,272.7,891.7,272.6z"/>
		<path class="st1" d="M892.9,310.8c-2.7,0.6-5.2,1.4-7.7,2.1c-8.4,2.4-16.4,4.6-25.8,2.9c-2.9-0.5-5.9-1.3-8.7-2.1
			c-7.3-2-14.9-4-22.7-2c-4.8,1.2-9,3.8-13,6.4c-1.2,0.8-2.4,1.5-3.6,2.3c-19.2,11.4-44,13.4-64.8,5.2c-3.5-1.4-6.9-3.1-10.3-4.7
			c-3.9-1.9-7.8-3.8-12-5.3c-14.5-5.3-31.1-5.3-45.6,0.1c-3.1,1.2-6.2,2.6-9.2,4c-4.9,2.3-10,4.6-15.4,5.8
			c-15.8,3.5-31.6-3.3-46.8-10c-15.4-6.7-31.2-13.5-47.4-10.2c-6.5,1.4-12.6,4.3-18.4,7.2c-5.9,2.9-11.9,5.9-18.3,7.2
			c-13,2.6-25.2-1.1-37.1-4.7c-12.6-3.8-25.6-7.7-39.6-4.4v0c-0.1,0-0.1,0-0.2,0c-2.7,0.6-5.2,1.4-7.7,2.1
			c-8.4,2.4-16.4,4.6-25.8,2.9c-2.9-0.5-5.9-1.3-8.7-2.1c-7.3-2-14.9-4-22.7-2c-4.8,1.2-9,3.8-13,6.4c-1.2,0.8-2.4,1.5-3.6,2.3
			c-19.2,11.4-44,13.4-64.8,5.2c-3.5-1.4-6.9-3.1-10.3-4.7c-3.9-1.9-7.8-3.8-12-5.3c-14.5-5.3-31.1-5.3-45.6,0.1
			c-3.1,1.2-6.2,2.6-9.2,4c-4.9,2.3-10,4.6-15.4,5.8c-15.8,3.5-31.6-3.3-46.8-10c-15.4-6.7-31.2-13.5-47.4-10.2
			c-6.5,1.4-12.6,4.3-18.4,7.2c-5.9,2.9-11.9,5.9-18.3,7.2c-13,2.6-25.2-1.1-37.1-4.7c-12.6-3.8-25.6-7.7-39.6-4.4v1.5
			c0.1,0,0.1,0,0.2,0c13.8-3.3,26.6,0.5,39,4.3c12,3.6,24.5,7.4,37.8,4.7c6.6-1.3,12.8-4.4,18.7-7.3c5.8-2.8,11.7-5.8,18.1-7.1
			c15.7-3.3,31.4,3.5,46.5,10.1c15.5,6.7,31.5,13.6,47.7,10c5.5-1.2,10.7-3.6,15.7-5.9c3-1.4,6-2.8,9.1-3.9
			c14.1-5.3,30.4-5.3,44.5-0.1c4,1.5,8,3.4,11.8,5.3c3.4,1.6,6.8,3.3,10.4,4.7c8.7,3.4,18,5.1,27.4,5.1c13.5,0,27.1-3.5,38.7-10.4
			c1.2-0.7,2.5-1.5,3.7-2.3c4-2.5,8.1-5.1,12.6-6.2c7.4-1.8,14.8,0.1,21.9,2c2.9,0.8,5.9,1.6,8.8,2.1c9.7,1.8,17.9-0.5,26.5-3
			c2.4-0.7,4.9-1.4,7.4-2c0.1,0,0.1,0,0.2,0c13.8-3.3,26.6,0.5,39,4.3c12,3.6,24.5,7.4,37.8,4.7c6.6-1.3,12.8-4.4,18.7-7.3
			c5.8-2.8,11.7-5.8,18.1-7.1c15.7-3.3,31.4,3.5,46.5,10.1c15.5,6.7,31.5,13.6,47.7,10c5.5-1.2,10.7-3.6,15.7-5.9
			c3-1.4,6-2.8,9.1-3.9c14.1-5.3,30.4-5.3,44.5-0.1c4,1.5,8,3.4,11.8,5.3c3.4,1.6,6.8,3.3,10.4,4.7c8.7,3.4,18,5.1,27.4,5.1
			c13.5,0,27.1-3.5,38.7-10.4c1.2-0.7,2.5-1.5,3.7-2.3c4-2.5,8.1-5.1,12.6-6.2c7.4-1.8,14.8,0.1,21.9,2c2.9,0.8,5.9,1.6,8.8,2.1
			c9.7,1.8,17.9-0.5,26.5-3c2.4-0.7,4.9-1.4,7.4-2v-1.5C893,310.8,892.9,310.8,892.9,310.8z"/>
		<path class="st1" d="M892.8,346.3c-2.3,0.6-4.4,1.3-6.5,1.9c-9.5,2.9-17.8,5.4-28.6,3.6c-4.3-0.7-8.6-1.9-12.8-3
			c-7.7-2.1-15.6-4.2-23.8-3.9c-8.5,0.3-16.7,3.3-24.6,6.3c-2.5,0.9-5,1.8-7.5,2.7c-13.4,4.5-23.7,4.6-31.7,0.3
			c-2.5-1.3-4.8-3.2-7-4.9c-1.7-1.3-3.4-2.7-5.2-3.8c-13-8.4-30.9-8.1-54.6,1c-2.2,0.9-4.5,1.8-6.8,2.6c-15.2,6-30.9,12.2-46.8,9.6
			c-7.8-1.3-15.3-4.7-22.6-8c-10.1-4.6-20.6-9.4-31.9-8.3c-5.9,0.6-11.4,2.7-16.8,4.8c-2.8,1.1-5.6,2.2-8.5,3.1
			c-21.1,6.5-43.4,0.5-58.3-4.6c-15.9-5.4-31.6-5.2-52.6,0.6c-0.1,0-0.1,0-0.2,0.1c-2.3,0.6-4.4,1.3-6.5,1.9
			c-9.5,2.9-17.8,5.4-28.6,3.6c-4.3-0.7-8.6-1.9-12.8-3c-7.7-2.1-15.6-4.2-23.8-3.9c-8.5,0.3-16.7,3.3-24.6,6.3
			c-2.5,0.9-5,1.8-7.5,2.7c-13.4,4.5-23.7,4.6-31.7,0.3c-2.5-1.3-4.8-3.2-7-4.9c-1.7-1.3-3.4-2.7-5.2-3.8c-13-8.4-30.9-8.1-54.6,1
			c-2.2,0.9-4.5,1.8-6.8,2.6c-15.2,6-30.9,12.2-46.8,9.6c-7.8-1.3-15.3-4.7-22.6-8c-10.1-4.6-20.6-9.4-31.9-8.3
			c-5.9,0.6-11.4,2.7-16.8,4.8c-2.8,1.1-5.6,2.2-8.5,3.1c-21.1,6.5-43.4,0.5-58.3-4.6c-15.9-5.4-31.6-5.2-52.6,0.6v1.5
			c0.1,0,0.1,0,0.2-0.1c20.7-5.9,36.3-6.1,51.9-0.7c15.1,5.2,37.7,11.3,59.2,4.6c2.9-0.9,5.8-2,8.6-3.1c5.3-2.1,10.7-4.2,16.4-4.7
			c10.8-1.1,20.7,3.4,31.1,8.2c7.4,3.4,15,6.8,23,8.1c2.7,0.4,5.3,0.6,7.9,0.6c13.5,0,26.8-5.2,39.7-10.4c2.2-0.9,4.5-1.8,6.7-2.6
			c23.3-8.9,40.7-9.3,53.3-1.1c1.7,1.1,3.4,2.5,5,3.8c2.3,1.8,4.6,3.7,7.2,5.1c8.3,4.5,19.1,4.4,32.9-0.2c2.5-0.8,5.1-1.8,7.5-2.7
			c7.8-2.9,15.8-5.9,24.1-6.2c8-0.3,15.8,1.8,23.4,3.8c4.2,1.1,8.5,2.3,12.9,3c11.1,1.9,19.5-0.6,29.3-3.6c2-0.6,4.1-1.3,6.3-1.9
			c0.1,0,0.1,0,0.2-0.1c20.7-5.9,36.3-6.1,51.9-0.7c15.1,5.2,37.7,11.3,59.2,4.6c2.9-0.9,5.8-2,8.6-3.1c5.3-2.1,10.7-4.2,16.4-4.7
			c10.8-1.1,20.7,3.4,31.1,8.2c7.4,3.4,15,6.8,23,8.1c2.7,0.4,5.3,0.6,7.9,0.6c13.5,0,26.8-5.2,39.7-10.4c2.2-0.9,4.5-1.8,6.7-2.6
			c23.3-8.9,40.7-9.3,53.3-1.1c1.7,1.1,3.4,2.5,5,3.8c2.3,1.8,4.6,3.7,7.2,5.1c8.3,4.5,19.1,4.4,32.9-0.2c2.5-0.8,5.1-1.8,7.5-2.7
			c7.8-2.9,15.8-5.9,24.1-6.2c8-0.3,15.8,1.8,23.4,3.8c4.2,1.1,8.5,2.3,12.9,3c11.1,1.9,19.5-0.6,29.3-3.6c2-0.6,4.1-1.3,6.3-1.9
			v-1.5C893,346.3,892.9,346.3,892.8,346.3z"/>
		<path class="st1" d="M892.9,378.3c-2.8,0.8-5.6,1.7-8.2,2.7c-5.1,1.8-9.9,3.5-15.2,4c-3,0.3-6,0.1-9-0.1c-5-0.3-10.3-0.6-15.4,1.2
			c-2.6,0.9-5.1,2.4-7.4,3.7c-1.5,0.9-3.1,1.8-4.6,2.6c-10.9,5.3-25,4.4-42-2.7c-3.9-1.6-7.8-3.5-11.5-5.2
			c-9.4-4.4-19.1-9-29.5-10.8c-9.9-1.7-20-0.8-29.4,2.6c-4,1.4-7.8,3.3-11.5,5.1c-4.9,2.4-9.9,4.8-15.2,6.3
			c-16.4,4.4-33.3-1.3-49.7-6.9c-15.3-5.2-31.1-10.6-46.8-8c-8.9,1.4-17.1,4.8-24.9,8c-11.3,4.6-21.9,8.9-34.7,8.3
			c-10.8-0.6-21.4-3.9-31.6-7.2c-10.5-3.3-21.3-6.8-32.6-7.3c-8.2-0.4-16.8,0.8-27.1,3.6v0c-0.1,0-0.1,0-0.2,0.1
			c-2.8,0.8-5.6,1.7-8.2,2.7c-5.1,1.8-9.9,3.5-15.2,4c-3,0.3-6,0.1-9-0.1c-5-0.3-10.3-0.6-15.4,1.2c-2.6,0.9-5.1,2.4-7.4,3.7
			c-1.5,0.9-3.1,1.8-4.6,2.6c-10.9,5.3-25,4.4-42-2.7c-3.9-1.6-7.8-3.5-11.5-5.2c-9.4-4.4-19.1-9-29.5-10.8
			c-9.9-1.7-20-0.8-29.4,2.6c-4,1.4-7.8,3.3-11.5,5.1c-4.9,2.4-9.9,4.8-15.2,6.3c-16.4,4.4-33.3-1.3-49.7-6.9
			c-15.3-5.2-31.1-10.6-46.8-8c-8.9,1.4-17.1,4.8-24.9,8c-11.3,4.6-21.9,8.9-34.7,8.3c-10.8-0.6-21.4-3.9-31.6-7.2
			c-10.5-3.3-21.3-6.8-32.6-7.3c-8.2-0.4-16.8,0.8-27.1,3.6v1.5c0.1,0,0.1,0,0.2-0.1c10.2-2.8,18.8-3.9,26.8-3.6
			c11.1,0.5,21.8,3.9,32.2,7.2c10.3,3.3,20.9,6.7,31.9,7.2c13.1,0.7,24.4-3.9,35.3-8.4c7.8-3.2,15.9-6.5,24.6-7.9
			c15.4-2.5,31,2.8,46.1,7.9c16.6,5.6,33.7,11.4,50.5,6.9c5.4-1.5,10.5-3.9,15.4-6.4c3.7-1.8,7.5-3.7,11.4-5.1
			c9.2-3.3,19.1-4.2,28.7-2.6c10.2,1.7,19.8,6.3,29.1,10.6c3.8,1.8,7.7,3.6,11.6,5.3c9.9,4.1,18.9,6.2,26.9,6.2
			c6,0,11.5-1.2,16.3-3.5c1.6-0.8,3.2-1.7,4.7-2.6c2.3-1.3,4.6-2.7,7.1-3.6c4.8-1.7,9.7-1.4,14.8-1.1c3,0.2,6.1,0.4,9.2,0.1
			c5.5-0.5,10.6-2.3,15.5-4c2.6-0.9,5.2-1.9,7.9-2.6v0c0.1,0,0.1,0,0.2-0.1c10.2-2.8,18.8-3.9,26.8-3.6c11.1,0.5,21.8,3.9,32.2,7.2
			c10.3,3.3,20.9,6.7,31.9,7.2c13.1,0.7,24.4-3.9,35.3-8.4c7.8-3.2,15.9-6.5,24.6-7.9c15.4-2.5,31,2.8,46.1,7.9
			c16.6,5.6,33.7,11.4,50.5,6.9c5.4-1.5,10.5-3.9,15.4-6.4c3.7-1.8,7.5-3.7,11.4-5.1c9.2-3.3,19.1-4.2,28.7-2.6
			c10.2,1.7,19.8,6.3,29.1,10.6c3.8,1.8,7.7,3.6,11.6,5.3c9.9,4.1,18.9,6.2,26.9,6.2c6,0,11.5-1.2,16.3-3.5c1.6-0.8,3.2-1.7,4.7-2.6
			c2.3-1.3,4.6-2.7,7.1-3.6c4.8-1.7,9.7-1.4,14.8-1.1c3,0.2,6.1,0.4,9.2,0.1c5.5-0.5,10.6-2.3,15.5-4c2.6-0.9,5.2-1.9,7.9-2.6v-1.5
			C893,378.3,892.9,378.3,892.9,378.3z"/>
		<path class="st1" d="M892.8,128c-15.6,5.8-27.1,3.1-41.7-3.5c-11.2-5-24.4-4.9-39.4,0.5c-3.1,1.1-6.3,2.4-9.4,3.6
			c-9.6,3.9-19.5,7.8-29.8,8c-8.3,0.1-16.9-3.3-25.2-6.7c-3.4-1.4-6.6-2.7-9.8-3.7c-16.2-5.4-30.8-9.6-44.9-5
			c-5.2,1.7-10,4.5-14.7,7.3c-6.5,3.9-12.7,7.5-19.9,8.3c-11,1.2-19.7-4.2-28.9-9.9c-5.7-3.5-11.6-7.2-18-9
			c-12.8-3.7-24.8,2.4-36.4,8.2c-4.1,2.1-8,4-11.9,5.6c-14,5.6-26.9,1.4-40.5-3c-5-1.6-10.1-3.3-15.3-4.4c-21.1-4.5-42-3.3-60.6,3.5
			c-0.1,0-0.2,0.1-0.3,0.1c-15.6,5.8-27.1,3.1-41.7-3.5c-11.2-5-24.4-4.9-39.4,0.5c-3.1,1.1-6.3,2.4-9.4,3.6
			c-9.6,3.9-19.5,7.8-29.8,8c-8.3,0.1-16.9-3.3-25.2-6.7c-3.4-1.4-6.6-2.7-9.8-3.7c-16.2-5.4-30.8-9.6-44.9-5
			c-5.2,1.7-10,4.5-14.7,7.3c-6.5,3.9-12.7,7.5-19.9,8.3c-11,1.2-19.7-4.2-28.9-9.9c-5.7-3.5-11.6-7.2-18-9
			c-12.8-3.7-24.8,2.4-36.4,8.2c-4.1,2.1-8,4-11.9,5.6c-14,5.6-26.9,1.4-40.5-3c-5-1.6-10.1-3.3-15.3-4.4c-21.1-4.5-42-3.3-60.6,3.5
			v1.6c0.1,0,0.2-0.1,0.3-0.1c18.3-6.8,39.1-8,60-3.5c5.1,1.1,10.2,2.7,15.1,4.3c13.3,4.3,27,8.7,41.5,2.9c4-1.6,8-3.6,12-5.7
			c11.3-5.8,23.1-11.7,35.3-8.1c6.3,1.8,12,5.4,17.7,8.9c8.2,5.1,16.6,10.3,26.7,10.3c1,0,2.1-0.1,3.1-0.2
			c7.5-0.8,14.1-4.7,20.5-8.5c4.6-2.7,9.4-5.5,14.4-7.2c13.7-4.4,28-0.4,44,5c3.1,1.1,6.3,2.3,9.7,3.7c8.5,3.4,17.2,7,25.8,6.8
			c10.6-0.2,20.6-4.2,30.3-8.1c3.1-1.2,6.2-2.5,9.3-3.6c14.5-5.2,27.4-5.4,38.2-0.5c14.9,6.7,26.7,9.4,42.6,3.6
			c0.1,0,0.2-0.1,0.3-0.1c18.3-6.8,39.1-8,60-3.5c5.1,1.1,10.2,2.7,15.1,4.3c13.3,4.3,27,8.7,41.5,2.9c4-1.6,8-3.6,12-5.7
			c11.3-5.8,23.1-11.7,35.3-8.1c6.3,1.8,12,5.4,17.7,8.9c8.2,5.1,16.6,10.3,26.7,10.3c1,0,2.1-0.1,3.1-0.2
			c7.5-0.8,14.1-4.7,20.5-8.5c4.6-2.7,9.4-5.5,14.4-7.2c13.7-4.4,28-0.4,44,5c3.1,1.1,6.3,2.3,9.7,3.7c8.5,3.4,17.2,7,25.8,6.8
			c10.6-0.2,20.6-4.2,30.3-8.1c3.1-1.2,6.2-2.5,9.3-3.6c14.5-5.2,27.4-5.4,38.2-0.5c14.9,6.7,26.7,9.4,42.6,3.6v-1.6
			C893,127.9,892.9,127.9,892.8,128z"/>
	</g>
</g>
</svg>